#Comment line ignore any data following # character 
#Hierarchical Translation and Rotation (.htr) file 
[Header]	
#Header keywords are followed by a single value 
FileType HTR		#Single word string
DataType HTRS		#Translation followed by rotation and scale data
FileVersion 1		#integer
NumSegments 84		#integer
NumFrames 2		#integer
DataFrameRate 30		#integer, data frame rate in this file
EulerRotationOrder ZYX
CalibrationUnits mm
RotationUnits Degrees
GlobalAxisofGravity Y
BoneLengthAxis Y
ScaleFactor 1.00
[SegmentNames&Hierarchy]
#CHILD	PARENT
MASTER GLOBAL
root MASTER
chest root
L_mid_tent01 root
R_mid_tent01 root
spine01 root
Bip01_Neck chest
L_humerus chest
R_humerus chest
weapon_bone chest
Bip01_Head Bip01_Neck
eye_left_bone Bip01_Head
eye_right_bone Bip01_Head
L_forearm L_humerus
L_front_hand L_forearm
L_weapon_bone L_forearm
L_front_hand01_01 L_front_hand
L_front_hand02_01 L_front_hand
L_front_hand03_01 L_front_hand
L_front_hand01_02 L_front_hand01_01
L_front_hand02_02 L_front_hand02_01
L_front_hand03_02 L_front_hand03_01
R_forearm R_humerus
R_front_hand R_forearm
R_weapon_bone R_forearm
R_front_hand01_01 R_front_hand
R_front_hand02_01 R_front_hand
R_front_hand03_01 R_front_hand
R_front_hand01_02 R_front_hand01_01
R_front_hand02_02 R_front_hand02_01
R_front_hand03_02 R_front_hand03_01
null_rope01_connect L_mid_tent01
Rope1_Seg01 null_rope01_connect
Rope1_Seg02 Rope1_Seg01
Rope1_Seg03 Rope1_Seg02
Rope1_Seg04 Rope1_Seg03
Rope1_Seg05 Rope1_Seg04
Rope1_Seg06 Rope1_Seg05
Rope1_Seg07 Rope1_Seg06
Rope1_Seg09 Rope1_Seg07
L_mid_hand01 Rope1_Seg09
L_mid_hand02 Rope1_Seg09
L_mid_hand03 Rope1_Seg09
null_rope02_connect R_mid_tent01
Rope2_Seg01 null_rope02_connect
Rope2_Seg02 Rope2_Seg01
Rope2_Seg03 Rope2_Seg02
Rope2_Seg04 Rope2_Seg03
Rope2_Seg05 Rope2_Seg04
Rope2_Seg06 Rope2_Seg05
Rope2_Seg07 Rope2_Seg06
Rope2_Seg09 Rope2_Seg07
R_mid_hand01 Rope2_Seg09
R_mid_hand02 Rope2_Seg09
R_mid_hand03 Rope2_Seg09
spine02 spine01
spine03 spine02
pelvis spine03
null_rope03_connect pelvis
null_rope04_connect pelvis
Rope3_Seg01 null_rope03_connect
Rope3_Seg02 Rope3_Seg01
Rope3_Seg03 Rope3_Seg02
Rope3_Seg04 Rope3_Seg03
Rope3_Seg05 Rope3_Seg04
Rope3_Seg06 Rope3_Seg05
Rope3_Seg07 Rope3_Seg06
Rope3_Seg08 Rope3_Seg07
Rope3_Seg09 Rope3_Seg08
R_rear_hand01 Rope3_Seg09
R_rear_hand02 Rope3_Seg09
R_rear_hand03 Rope3_Seg09
Rope4_Seg01 null_rope04_connect
Rope4_Seg02 Rope4_Seg01
Rope4_Seg03 Rope4_Seg02
Rope4_Seg04 Rope4_Seg03
Rope4_Seg05 Rope4_Seg04
Rope4_Seg06 Rope4_Seg05
Rope4_Seg07 Rope4_Seg06
Rope4_Seg08 Rope4_Seg07
Rope4_Seg09 Rope4_Seg08
L_rear_hand01 Rope4_Seg09
L_rear_hand02 Rope4_Seg09
L_rear_hand03 Rope4_Seg09
[BasePosition]
#SegmentName Tx, Ty, Tz, Rx, Ry, Rz, BoneLength
MASTER 0.000000 0.000000 0.000000 -90.000000 0.000000 0.000000 10.000000 
root 0.000000 0.000000 0.000000 0.000000 0.000000 0.000000 10.000000 
chest 0.000000 0.000000 0.000000 0.000000 0.000000 0.000000 10.000000 
L_mid_tent01 0.000000 0.000000 0.000000 0.000000 0.000000 0.000000 10.000000 
R_mid_tent01 0.000000 0.000000 0.000000 0.000000 0.000000 0.000000 10.000000 
spine01 0.000000 0.000000 0.000000 0.000000 0.000000 0.000000 10.000000 
Bip01_Neck 0.000000 0.000000 0.000000 0.000000 0.000000 0.000000 10.000000 
L_humerus 0.000000 0.000000 0.000000 0.000000 0.000000 0.000000 10.000000 
R_humerus 0.000000 0.000000 0.000000 0.000000 0.000000 0.000000 10.000000 
weapon_bone 0.000000 0.000000 0.000000 0.000000 0.000000 0.000000 10.000000 
Bip01_Head 0.000000 0.000000 0.000000 0.000000 0.000000 0.000000 10.000000 
eye_left_bone 0.000000 0.000000 0.000000 0.000000 0.000000 0.000000 10.000000 
eye_right_bone 0.000000 0.000000 0.000000 0.000000 0.000000 0.000000 10.000000 
L_forearm 0.000000 0.000000 0.000000 0.000000 0.000000 0.000000 10.000000 
L_front_hand 0.000000 0.000000 0.000000 0.000000 0.000000 0.000000 10.000000 
L_weapon_bone 0.000000 0.000000 0.000000 0.000000 0.000000 0.000000 10.000000 
L_front_hand01_01 0.000000 0.000000 0.000000 0.000000 0.000000 0.000000 10.000000 
L_front_hand02_01 0.000000 0.000000 0.000000 0.000000 0.000000 0.000000 10.000000 
L_front_hand03_01 0.000000 0.000000 0.000000 0.000000 0.000000 0.000000 10.000000 
L_front_hand01_02 0.000000 0.000000 0.000000 0.000000 0.000000 0.000000 10.000000 
L_front_hand02_02 0.000000 0.000000 0.000000 0.000000 0.000000 0.000000 10.000000 
L_front_hand03_02 0.000000 0.000000 0.000000 0.000000 0.000000 0.000000 10.000000 
R_forearm 0.000000 0.000000 0.000000 0.000000 0.000000 0.000000 10.000000 
R_front_hand 0.000000 0.000000 0.000000 0.000000 0.000000 0.000000 10.000000 
R_weapon_bone 0.000000 0.000000 0.000000 0.000000 0.000000 0.000000 10.000000 
R_front_hand01_01 0.000000 0.000000 0.000000 0.000000 0.000000 0.000000 10.000000 
R_front_hand02_01 0.000000 0.000000 0.000000 0.000000 0.000000 0.000000 10.000000 
R_front_hand03_01 0.000000 0.000000 0.000000 0.000000 0.000000 0.000000 10.000000 
R_front_hand01_02 0.000000 0.000000 0.000000 0.000000 0.000000 0.000000 10.000000 
R_front_hand02_02 0.000000 0.000000 0.000000 0.000000 0.000000 0.000000 10.000000 
R_front_hand03_02 0.000000 0.000000 0.000000 0.000000 0.000000 0.000000 10.000000 
null_rope01_connect 0.000000 0.000000 0.000000 0.000000 0.000000 0.000000 10.000000 
Rope1_Seg01 0.000000 0.000000 0.000000 0.000000 0.000000 0.000000 10.000000 
Rope1_Seg02 0.000000 0.000000 0.000000 0.000000 0.000000 0.000000 10.000000 
Rope1_Seg03 0.000000 0.000000 0.000000 0.000000 0.000000 0.000000 10.000000 
Rope1_Seg04 0.000000 0.000000 0.000000 0.000000 0.000000 0.000000 10.000000 
Rope1_Seg05 0.000000 0.000000 0.000000 0.000000 0.000000 0.000000 10.000000 
Rope1_Seg06 0.000000 0.000000 0.000000 0.000000 0.000000 0.000000 10.000000 
Rope1_Seg07 0.000000 0.000000 0.000000 0.000000 0.000000 0.000000 10.000000 
Rope1_Seg09 0.000000 0.000000 0.000000 0.000000 0.000000 0.000000 10.000000 
L_mid_hand01 0.000000 0.000000 0.000000 0.000000 0.000000 0.000000 10.000000 
L_mid_hand02 0.000000 0.000000 0.000000 0.000000 0.000000 0.000000 10.000000 
L_mid_hand03 0.000000 0.000000 0.000000 0.000000 0.000000 0.000000 10.000000 
null_rope02_connect 0.000000 0.000000 0.000000 0.000000 0.000000 0.000000 10.000000 
Rope2_Seg01 0.000000 0.000000 0.000000 0.000000 0.000000 0.000000 10.000000 
Rope2_Seg02 0.000000 0.000000 0.000000 0.000000 0.000000 0.000000 10.000000 
Rope2_Seg03 0.000000 0.000000 0.000000 0.000000 0.000000 0.000000 10.000000 
Rope2_Seg04 0.000000 0.000000 0.000000 0.000000 0.000000 0.000000 10.000000 
Rope2_Seg05 0.000000 0.000000 0.000000 0.000000 0.000000 0.000000 10.000000 
Rope2_Seg06 0.000000 0.000000 0.000000 0.000000 0.000000 0.000000 10.000000 
Rope2_Seg07 0.000000 0.000000 0.000000 0.000000 0.000000 0.000000 10.000000 
Rope2_Seg09 0.000000 0.000000 0.000000 0.000000 0.000000 0.000000 10.000000 
R_mid_hand01 0.000000 0.000000 0.000000 0.000000 0.000000 0.000000 10.000000 
R_mid_hand02 0.000000 0.000000 0.000000 0.000000 0.000000 0.000000 10.000000 
R_mid_hand03 0.000000 0.000000 0.000000 0.000000 0.000000 0.000000 10.000000 
spine02 0.000000 0.000000 0.000000 0.000000 0.000000 0.000000 10.000000 
spine03 0.000000 0.000000 0.000000 0.000000 0.000000 0.000000 10.000000 
pelvis 0.000000 0.000000 0.000000 0.000000 0.000000 0.000000 10.000000 
null_rope03_connect 0.000000 0.000000 0.000000 0.000000 0.000000 0.000000 10.000000 
null_rope04_connect 0.000000 0.000000 0.000000 0.000000 0.000000 0.000000 10.000000 
Rope3_Seg01 0.000000 0.000000 0.000000 0.000000 0.000000 0.000000 10.000000 
Rope3_Seg02 0.000000 0.000000 0.000000 0.000000 0.000000 0.000000 10.000000 
Rope3_Seg03 0.000000 0.000000 0.000000 0.000000 0.000000 0.000000 10.000000 
Rope3_Seg04 0.000000 0.000000 0.000000 0.000000 0.000000 0.000000 10.000000 
Rope3_Seg05 0.000000 0.000000 0.000000 0.000000 0.000000 0.000000 10.000000 
Rope3_Seg06 0.000000 0.000000 0.000000 0.000000 0.000000 0.000000 10.000000 
Rope3_Seg07 0.000000 0.000000 0.000000 0.000000 0.000000 0.000000 10.000000 
Rope3_Seg08 0.000000 0.000000 0.000000 0.000000 0.000000 0.000000 10.000000 
Rope3_Seg09 0.000000 0.000000 0.000000 0.000000 0.000000 0.000000 10.000000 
R_rear_hand01 0.000000 0.000000 0.000000 0.000000 0.000000 0.000000 10.000000 
R_rear_hand02 0.000000 0.000000 0.000000 0.000000 0.000000 0.000000 10.000000 
R_rear_hand03 0.000000 0.000000 0.000000 0.000000 0.000000 0.000000 10.000000 
Rope4_Seg01 0.000000 0.000000 0.000000 0.000000 0.000000 0.000000 10.000000 
Rope4_Seg02 0.000000 0.000000 0.000000 0.000000 0.000000 0.000000 10.000000 
Rope4_Seg03 0.000000 0.000000 0.000000 0.000000 0.000000 0.000000 10.000000 
Rope4_Seg04 0.000000 0.000000 0.000000 0.000000 0.000000 0.000000 10.000000 
Rope4_Seg05 0.000000 0.000000 0.000000 0.000000 0.000000 0.000000 10.000000 
Rope4_Seg06 0.000000 0.000000 0.000000 0.000000 0.000000 0.000000 10.000000 
Rope4_Seg07 0.000000 0.000000 0.000000 0.000000 0.000000 0.000000 10.000000 
Rope4_Seg08 0.000000 0.000000 0.000000 0.000000 0.000000 0.000000 10.000000 
Rope4_Seg09 0.000000 0.000000 0.000000 0.000000 0.000000 0.000000 10.000000 
L_rear_hand01 0.000000 0.000000 0.000000 0.000000 0.000000 0.000000 10.000000 
L_rear_hand02 0.000000 0.000000 0.000000 0.000000 0.000000 0.000000 10.000000 
L_rear_hand03 0.000000 0.000000 0.000000 0.000000 0.000000 0.000000 10.000000 
#Beginning of Data. Separated by tabs
#Fr	Tx	Ty	Tz	Rx	Ry	Rz	SF
[MASTER]
12 0.000000 0.000000 0.000000 0.001660 0.001660 0.001660 0.000000
13 0.000000 0.000000 0.000000 0.001660 0.001660 0.001660 0.000000
[root]
12 -8.963960 -3.316468 1398.878540 -91.728897 -11.584496 -89.471619 1398.911255
13 -14.480494 -0.123390 1391.880249 -91.728897 -11.584496 -89.471619 1391.955566
[chest]
12 -84.512650 -34.090519 0.000000 -2.170494 -0.006436 168.239609 91.129311
13 -84.512650 -34.090519 0.000000 -2.170494 -0.006436 168.239609 91.129311
[L_mid_tent01]
12 27.299511 22.177458 -249.918259 -20.661390 12.026041 12.983019 252.381134
13 27.299511 22.177458 -249.918259 -20.661390 12.026041 12.983019 252.381134
[R_mid_tent01]
12 23.228794 24.509907 226.238495 -165.192200 -17.956036 24.056787 228.744751
13 23.228794 24.509907 226.238495 -165.192200 -17.956030 24.056782 228.744751
[spine01]
12 -0.361383 -0.195265 0.000000 -0.000001 -0.000007 22.052340 0.410763
13 -0.361383 -0.195265 0.000000 -0.000001 -0.000007 22.052340 0.410763
[Bip01_Neck]
12 165.484543 71.581718 0.000119 175.896118 1.177290 24.871183 180.302734
13 165.484543 71.581718 0.000119 175.896118 1.177290 24.871180 180.302734
[L_humerus]
12 -13.983130 -135.272980 -120.471481 -5.480129 68.873367 84.573456 181.680161
13 -13.983130 -135.272980 -120.471481 -5.480129 68.873367 84.573456 181.680161
[R_humerus]
12 -13.983309 -135.273102 125.287651 27.897165 -69.888802 67.752319 184.909012
13 -13.983309 -135.273102 125.287651 27.897161 -69.888809 67.752327 184.909012
[weapon_bone]
12 235.964890 -300.705902 0.000000 0.000000 -89.951546 -128.212341 382.234833
13 235.964890 -300.705902 0.000000 0.000000 -89.951546 -128.212341 382.234833
[Bip01_Head]
12 193.865707 99.525291 7.890739 1.727521 4.534425 -43.429157 218.062973
13 193.865707 99.525291 7.890739 1.727521 4.534425 -43.429157 218.062973
[eye_left_bone]
12 -24.626970 125.451866 -64.772606 0.000000 -90.000000 -99.840431 143.318359
13 -24.626970 125.451866 -64.772606 0.000000 -90.000000 -99.840431 143.318359
[eye_right_bone]
12 -24.626970 125.451866 64.327362 0.000000 -89.965736 80.156380 143.117676
13 -24.626970 125.451866 64.327362 0.000000 -89.965736 80.156380 143.117676
[L_forearm]
12 322.776093 0.000000 -0.000119 0.000396 -0.002314 -109.419975 322.776093
13 322.776093 0.000000 -0.000119 0.000396 -0.002314 -109.419975 322.776093
[L_front_hand]
12 241.149185 -0.042021 -3.300071 -179.659958 -2.242151 -0.019832 241.171753
13 241.149185 -0.042021 -3.300071 -179.659958 -2.242151 -0.019832 241.171753
[L_weapon_bone]
12 156.183838 0.000000 0.000000 0.000014 0.000007 0.000001 156.183838
13 156.183838 0.000000 0.000000 0.000014 0.000007 0.000001 156.183838
[L_front_hand01_01]
12 86.095154 20.947098 -0.655860 -0.366594 -0.477154 75.385574 88.609184
13 86.095154 20.947098 -0.655860 -0.366594 -0.477154 75.385574 88.609184
[L_front_hand02_01]
12 86.935165 -11.437475 24.513514 154.399796 -59.883835 -61.369587 91.046425
13 86.935165 -11.437475 24.513514 154.399796 -59.883835 -61.369587 91.046425
[L_front_hand03_01]
12 86.637497 -14.123976 -20.424902 -153.913879 58.118130 -62.702892 90.126129
13 86.637497 -14.123976 -20.424902 -153.913849 58.118122 -62.702850 90.126129
[L_front_hand01_02]
12 71.020905 -0.000179 0.000030 0.000334 -0.002323 -106.379684 71.020905
13 71.020905 -0.000179 0.000030 0.000334 -0.002323 -106.379684 71.020905
[L_front_hand02_02]
12 71.020927 -0.000119 0.000060 0.000334 -0.002323 -106.379684 71.020927
13 71.020927 -0.000119 0.000060 0.000334 -0.002323 -106.379684 71.020927
[L_front_hand03_02]
12 71.020905 -0.000060 0.000060 0.000334 -0.002323 -106.379684 71.020905
13 71.020905 -0.000060 0.000060 0.000334 -0.002323 -106.379684 71.020905
[R_forearm]
12 322.776428 -0.000060 0.000030 0.202103 0.065158 -108.062805 322.776428
13 322.776428 -0.000060 0.000030 0.202103 0.065158 -108.062820 322.776428
[R_front_hand]
12 238.847015 -0.006795 2.210259 -0.270529 1.703932 2.322530 238.857239
13 238.847015 -0.006795 2.210259 -0.270529 1.703932 2.322530 238.857239
[R_weapon_bone]
12 155.664093 0.002503 -0.000030 0.003487 0.001180 -90.988930 155.664078
13 155.664093 0.002503 -0.000030 0.003487 0.001180 -90.988930 155.664078
[R_front_hand01_01]
12 87.624611 14.231146 22.918642 -133.187851 -48.613983 35.610935 91.683487
13 87.624611 14.231146 22.918642 -154.633499 -59.950619 61.746044 91.683487
[R_front_hand02_01]
12 89.356956 14.367283 -19.491137 134.233063 47.123314 38.415436 92.579636
13 89.356956 14.367283 -19.491137 154.602661 58.302849 63.744389 92.579636
[R_front_hand03_01]
12 87.286232 -22.307278 -0.143439 0.017076 -0.453648 -56.968250 90.091743
13 87.286232 -22.307278 -0.143439 0.162155 -0.423168 -75.767921 90.091743
[R_front_hand01_02]
12 71.020905 0.000060 0.000119 0.002323 -0.000334 106.381714 71.020905
13 71.020905 0.000060 0.000119 0.002323 -0.000334 106.381706 71.020905
[R_front_hand02_02]
12 71.020844 -0.000030 -0.000119 0.002323 -0.000334 106.381714 71.020836
13 71.020844 -0.000030 -0.000119 0.002323 -0.000334 106.381706 71.020836
[R_front_hand03_02]
12 71.020905 0.000000 0.000030 0.002323 -0.000334 106.381714 71.020905
13 71.020905 0.000000 0.000030 0.002323 -0.000334 106.381706 71.020905
[null_rope01_connect]
12 328.732483 0.000000 -0.000238 -154.483337 -64.791321 -118.914307 328.732483
13 328.732483 0.000000 -0.000238 -154.483353 -64.791321 -118.914307 328.732483
[Rope1_Seg01]
12 -0.000038 -0.000114 0.000102 63.068649 -1.975436 -127.499283 0.000158
13 -0.000038 -0.000114 0.000103 65.297760 -1.645938 -128.590042 0.000159
[Rope1_Seg02]
12 139.999863 -0.000179 0.000000 -12.087613 6.192674 1.651514 139.999863
13 139.999863 -0.000179 0.000000 -11.661231 6.009206 1.548133 139.999863
[Rope1_Seg03]
12 139.999924 0.000060 -0.000060 -15.103153 6.263008 3.238418 139.999924
13 139.999924 0.000060 -0.000060 -14.692188 6.153543 3.008504 139.999924
[Rope1_Seg04]
12 139.999924 -0.000060 -0.000119 -17.773672 6.249897 5.805106 139.999924
13 139.999924 -0.000060 -0.000119 -17.277079 6.139478 5.247736 139.999924
[Rope1_Seg05]
12 139.999832 0.000119 -0.000060 -15.892105 4.824520 8.137989 139.999832
13 139.999832 0.000119 -0.000060 -18.282251 5.497708 9.607220 139.999832
[Rope1_Seg06]
12 139.999954 0.000119 -0.000060 -5.593767 1.096607 4.054015 139.999954
13 139.999954 0.000119 -0.000060 -6.163258 0.937477 5.039610 139.999954
[Rope1_Seg07]
12 139.999985 0.000060 0.000000 -2.736508 0.369244 2.337943 139.999985
13 139.999985 0.000060 0.000000 -2.758628 0.229685 2.687615 139.999985
[Rope1_Seg09]
12 121.602913 0.000119 -0.000089 -89.793175 -1.359789 0.847147 121.602913
13 121.602913 0.000119 -0.000089 -89.793175 -1.359789 0.847147 121.602913
[L_mid_hand01]
12 103.859421 1.038730 8.195221 106.855484 -31.239275 -9.461397 104.187431
13 103.859421 1.038730 8.195221 106.855484 -31.239275 -9.461397 104.187431
[L_mid_hand02]
12 105.572853 -4.139662 -10.864139 -142.331345 25.752670 -28.774628 106.211075
13 105.572853 -4.139662 -10.864139 -142.331345 25.752670 -28.774628 106.211075
[L_mid_hand03]
12 104.641464 17.579376 -3.913581 -16.122810 9.734291 34.223598 106.179977
13 104.641464 17.579376 -3.913581 -16.122810 9.734291 34.223598 106.179977
[null_rope02_connect]
12 328.732849 0.000179 -0.000119 -140.208786 68.099197 -35.150627 328.732849
13 328.732849 0.000179 -0.000119 -140.208755 68.099190 -35.150604 328.732849
[Rope2_Seg01]
12 0.000095 0.000153 0.000028 -5.016903 2.891798 -33.196045 0.000182
13 0.000095 0.000153 0.000031 -7.785351 3.634317 -32.557423 0.000183
[Rope2_Seg02]
12 139.999741 -0.000060 -0.000119 52.801712 1.300853 -16.472874 139.999756
13 139.999741 -0.000060 -0.000119 51.252472 1.499748 -15.515519 139.999756
[Rope2_Seg03]
12 140.000107 0.000030 0.000000 31.503780 -15.077380 -11.364352 140.000107
13 140.000107 0.000030 0.000000 31.766899 -12.878986 -10.788036 140.000107
[Rope2_Seg04]
12 139.999802 0.000000 -0.000060 12.361860 -17.017494 -4.309269 139.999802
13 139.999802 0.000000 -0.000060 13.291400 -16.437443 -4.275759 139.999802
[Rope2_Seg05]
12 139.999985 -0.000060 0.000119 8.114129 -9.386353 -6.129863 139.999985
13 139.999985 -0.000060 0.000119 9.447906 -13.412329 -5.714725 139.999985
[Rope2_Seg06]
12 139.999893 -0.000030 -0.000119 2.803901 -4.884254 -2.197759 139.999893
13 139.999893 -0.000030 -0.000119 2.920296 -6.893532 -1.804924 139.999893
[Rope2_Seg07]
12 139.999893 0.000060 -0.000060 1.185476 -3.002503 -0.806193 139.999893
13 139.999893 0.000060 -0.000060 1.077828 -3.857067 -0.509711 139.999893
[Rope2_Seg09]
12 121.338966 0.000089 -0.000060 33.793236 -1.359788 -0.847141 121.338966
13 121.338966 0.000089 -0.000060 33.793236 -1.359788 -0.847141 121.338966
[R_mid_hand01]
12 104.680779 11.144459 -10.335981 -41.523792 25.424656 28.595957 105.778534
13 104.680779 11.144459 -10.335981 -41.523792 25.424656 28.595957 105.778534
[R_mid_hand02]
12 104.070427 2.443552 8.231699 72.847389 -32.746803 10.013901 104.424065
13 104.070427 2.443552 8.231699 72.847389 -32.746803 10.013901 104.424065
[R_mid_hand03]
12 106.028137 -11.221827 -5.996406 -167.901306 10.259192 -37.009720 106.788818
13 106.028137 -11.221827 -5.996406 -167.901306 10.259192 -37.009720 106.788818
[spine02]
12 129.756927 0.001550 0.000119 0.360061 -4.044797 -12.915058 129.756927
13 129.756927 0.001550 0.000119 0.360061 -4.044797 -12.915058 129.756927
[spine03]
12 78.613846 0.087372 -4.898873 1.896495 3.831288 16.473045 78.766380
13 78.613846 0.087372 -4.898873 1.896495 3.831288 16.473045 78.766380
[pelvis]
12 169.435242 0.051022 0.000000 -0.060465 -0.180225 14.087930 169.435257
13 169.435242 0.051022 0.000000 -0.060465 -0.180225 14.087931 169.435257
[null_rope03_connect]
12 -1.257226 -2.466202 137.391083 156.329987 -89.381348 -94.430771 137.418976
13 -1.257226 -2.466202 137.391083 156.329987 -89.381348 -94.430771 137.418976
[null_rope04_connect]
12 -1.259640 -2.480268 -137.844437 156.329987 -89.381348 -94.430771 137.872513
13 -1.259640 -2.480268 -137.844437 156.329987 -89.381348 -94.430771 137.872513
[Rope3_Seg01]
12 0.000010 0.000038 -0.000114 -136.428177 35.127277 -83.195679 0.000121
13 0.000010 0.000038 -0.000114 -138.554932 35.385738 -86.994606 0.000121
[Rope3_Seg02]
12 139.999924 -0.000119 0.000060 0.748185 0.655741 -5.382095 139.999924
13 139.999924 -0.000119 0.000060 0.877946 -0.262084 -6.299576 139.999924
[Rope3_Seg03]
12 139.999924 -0.000119 0.000119 0.539475 0.763214 -7.032166 139.999924
13 139.999924 -0.000119 0.000119 0.644009 -0.458419 -8.108901 139.999924
[Rope3_Seg04]
12 139.999924 0.000119 0.000000 -0.356346 -2.042799 -18.838877 139.999924
13 139.999924 0.000119 0.000000 0.092861 -4.313686 -19.431276 139.999924
[Rope3_Seg05]
12 139.999924 -0.000238 0.000060 -1.219479 3.668334 -3.808829 139.999924
13 139.999924 -0.000238 0.000060 -1.426095 1.354261 -6.766008 139.999924
[Rope3_Seg06]
12 139.999893 -0.000119 -0.000060 3.060036 11.024518 27.251015 139.999893
13 139.999893 -0.000119 -0.000060 3.512506 12.523624 25.353224 139.999893
[Rope3_Seg07]
12 139.999771 0.000060 -0.000119 0.318564 5.764607 12.182778 139.999771
13 139.999771 0.000060 -0.000119 1.077950 7.933179 14.506973 139.999771
[Rope3_Seg08]
12 139.999985 -0.000060 0.000000 0.181258 2.810580 5.499581 139.999985
13 139.999985 -0.000060 0.000000 0.521748 3.753251 6.187434 139.999985
[Rope3_Seg09]
12 90.185997 -0.000179 -0.000060 89.793228 -1.359877 -0.847183 90.185997
13 90.185997 -0.000179 -0.000060 89.793228 -1.359877 -0.847183 90.185997
[R_rear_hand01]
12 103.366196 -6.073594 -10.757982 -161.551193 16.666374 -30.088671 104.101845
13 103.366196 -6.073594 -10.757982 -161.551193 16.666374 -30.088671 104.101845
[R_rear_hand02]
12 100.509819 12.039542 -7.992327 -34.280552 19.289745 28.875523 101.543350
13 100.509819 12.039542 -7.992327 -34.280552 19.289745 28.875523 101.543350
[R_rear_hand03]
12 101.539970 5.215704 5.435467 83.366440 -30.933914 7.284830 101.819031
13 101.539970 5.215704 5.435467 83.366440 -30.933914 7.284830 101.819031
[Rope4_Seg01]
12 0.000010 0.000038 -0.000114 43.228676 15.275585 -116.544121 0.000121
13 0.000010 0.000038 -0.000114 41.824039 15.172989 -120.902481 0.000121
[Rope4_Seg02]
12 139.999985 0.000060 0.000119 0.236870 11.791180 3.143956 139.999985
13 139.999985 0.000060 0.000119 0.407032 12.398865 4.783256 139.999985
[Rope4_Seg03]
12 139.999924 0.000000 -0.000238 0.995276 13.432487 4.372817 139.999924
13 139.999924 0.000000 -0.000238 1.100129 15.002928 6.400365 139.999924
[Rope4_Seg04]
12 139.999985 0.000000 0.000119 2.220072 21.089983 11.284377 139.999985
13 139.999985 0.000000 0.000119 2.134994 23.924007 15.086304 139.999985
[Rope4_Seg05]
12 139.999802 -0.000060 -0.000119 3.391161 -1.770586 -5.560497 139.999802
13 139.999802 -0.000060 -0.000119 3.616162 0.386070 -4.019748 139.999802
[Rope4_Seg06]
12 139.999924 0.000000 0.000060 5.877748 -20.722481 -18.315079 139.999924
13 139.999924 0.000000 0.000060 7.946265 -21.008003 -20.814714 139.999924
[Rope4_Seg07]
12 139.999802 0.000000 0.000000 1.229219 -11.944002 -9.376713 139.999802
13 139.999802 0.000000 0.000000 1.863490 -13.640723 -11.262540 139.999802
[Rope4_Seg08]
12 139.999924 0.000000 0.000119 -1.494430 -4.342217 -3.639718 139.999924
13 139.999924 0.000000 0.000119 -1.436317 -4.688091 -4.073868 139.999924
[Rope4_Seg09]
12 90.185791 0.000060 0.000060 -135.617828 2.228885 0.850567 90.185791
13 90.185791 0.000060 0.000060 -135.617828 2.228885 0.850567 90.185791
[L_rear_hand01]
12 101.696655 -8.392275 -7.654577 -34.454281 -18.946800 151.655121 102.329041
13 101.696655 -8.392275 -7.654577 -34.454281 -18.946800 151.655121 102.329041
[L_rear_hand02]
12 102.726799 -1.568258 5.773216 83.407906 30.330435 172.796509 102.900848
13 102.726799 -1.568258 5.773216 83.407906 30.330435 172.796509 102.900848
[L_rear_hand03]
12 104.552910 9.721220 -10.420293 -161.379868 -16.473232 -150.512238 105.519653
13 104.552910 9.721220 -10.420293 -161.379868 -16.473232 -150.512238 105.519653
